Coordinates
version=1
nRows=8
nColumns=40
inDegrees=yes

Units are S.I. units (second, meters, Newtons, ...)
If the header above contains a line with 'inDegrees', this indicates whether rotational values are in degrees (yes) or radians (no).

endheader
time	pelvis_tilt	pelvis_list	pelvis_rotation	pelvis_tx	pelvis_ty	pelvis_tz	hip_flexion_r	hip_adduction_r	hip_rotation_r	knee_angle_r	knee_angle_r_beta	ankle_angle_r	subtalar_angle_r	mtp_angle_r	hip_flexion_l	hip_adduction_l	hip_rotation_l	knee_angle_l	knee_angle_l_beta	ankle_angle_l	subtalar_angle_l	mtp_angle_l	lumbar_extension	lumbar_bending	lumbar_rotation	arm_flex_r	arm_add_r	arm_rot_r	elbow_flex_r	pro_sup_r	wrist_flex_r	wrist_dev_r	arm_flex_l	arm_add_l	arm_rot_l	elbow_flex_l	pro_sup_l	wrist_flex_l	wrist_dev_l
      3.40000000	    -28.97562216	     -1.88821337	      0.66650438	     -0.33895957	      0.71895362	     -0.97749935	     29.82591896	     -7.51820540	      7.89512907	     92.88871622	      1.62121394	    -19.15656352	      0.00000000	      0.00000000	     82.50321948	     -2.30762853	     -3.03246658	     88.78871998	      1.54965550	     22.38785293	      0.00000000	      0.00000000	    -15.58477743	    -10.73368004	      7.94752527	     76.03832796	     -6.42083571	     23.92023917	     76.39211854	     80.60643027	      0.00000000	      0.00000000	     79.88153758	    -12.49053900	     31.80886959	     72.93414672	     72.91654834	      0.00000000	      0.00000000
      3.40500000	    -28.98229927	     -1.91385004	      0.67405646	     -0.33902806	      0.71899100	     -0.97749842	     29.85080693	     -7.48373035	      7.88809581	     92.92192642	      1.62179356	    -18.99616029	      0.00000000	      0.00000000	     82.53276989	     -2.30833933	     -2.98059330	     88.78497733	      1.54959018	     22.23443075	      0.00000000	      0.00000000	    -15.61110519	    -10.69289539	      7.89736570	     76.12719920	     -6.37756037	     24.18487082	     76.39467357	     77.31082592	      0.00000000	      0.00000000	     79.91786581	    -12.64131154	     32.13678869	     73.19413736	     69.76864559	      0.00000000	      0.00000000
      3.41000000	    -28.94107392	     -1.89057153	      0.33059370	     -0.33879189	      0.71913243	     -0.97646958	     29.89674671	     -7.22387903	      8.21350533	     92.93873469	      1.62208692	    -19.12195020	      0.00000000	      0.00000000	     82.45402884	     -2.77074400	     -3.13984943	     88.82001895	      1.55020177	     22.54325606	      0.00000000	      0.00000000	    -15.60284767	    -10.85065058	      8.20981622	     76.10066670	     -6.28759086	     24.11453074	     76.38627614	     77.35374380	      0.00000000	      0.00000000	     79.97104301	    -12.69960273	     32.18185822	     73.18381423	     69.74255700	      0.00000000	      0.00000000
      3.41500000	    -28.92177582	     -1.73351195	      0.26785641	     -0.33874836	      0.71928924	     -0.97650175	     29.95325673	     -7.40626030	      8.31710413	     92.98566567	      1.62290602	    -19.20015696	      0.00000000	      0.00000000	     82.30412661	     -2.81875352	     -3.35099628	     88.73490677	      1.54871628	     22.75091827	      0.00000000	      0.00000000	    -15.64591782	    -11.03183420	      8.32022843	     76.02114848	     -6.34558446	     23.82740420	     76.55262354	     78.46205992	      0.00000000	      0.00000000	     79.94543461	    -12.54504617	     32.05424987	     73.12850950	     69.86014207	      0.00000000	      0.00000000
      3.42000000	    -28.92527105	     -1.74944952	      0.31123564	     -0.33876538	      0.71930939	     -0.97658923	     29.92632921	     -7.36527939	      8.33068185	     92.95993542	      1.62245695	    -19.08505349	      0.00000000	      0.00000000	     82.37097729	     -2.72509418	     -3.26789761	     88.76021612	      1.54915802	     22.66146685	      0.00000000	      0.00000000	    -15.66474018	    -11.00033189	      8.23453553	     76.06599671	     -6.26326681	     23.77085717	     76.38801052	     80.90955555	      0.00000000	      0.00000000	     79.98004656	    -12.60379246	     31.84649973	     73.05277227	     72.82909501	      0.00000000	      0.00000000
      3.42500000	    -28.95302559	     -1.69706219	      0.69946646	     -0.33904214	      0.71932961	     -0.97782178	     29.89984246	     -7.76024477	      7.98339151	     92.94455376	      1.62218848	    -19.07531208	      0.00000000	      0.00000000	     82.39934944	     -2.17353688	     -3.16906556	     88.66521479	      1.54749993	     22.39757178	      0.00000000	      0.00000000	    -15.75475133	    -10.87518329	      7.80837946	     76.16125935	     -6.24758007	     23.86249387	     76.33452327	     80.84398104	      0.00000000	      0.00000000	     79.95848723	    -12.61281791	     31.67359625	     73.04708921	     73.71201106	      0.00000000	      0.00000000
      3.43000000	    -29.00008851	     -1.70887483	      0.32795422	     -0.33901958	      0.71931975	     -0.97657863	     30.07302710	     -7.40731257	      8.35002143	     93.01653026	      1.62344471	    -19.09276755	      0.00000000	      0.00000000	     82.44427264	     -2.70186179	     -3.29274207	     88.71700321	      1.54840381	     22.60354231	      0.00000000	      0.00000000	    -15.64107578	    -11.02330055	      8.16169381	     76.13137301	     -6.16186048	     23.76368700	     76.32025536	     80.78857115	      0.00000000	      0.00000000	     80.03300925	    -12.66546624	     31.74872375	     73.04232325	     73.53037575	      0.00000000	      0.00000000
      3.43500000	    -29.01157081	     -1.67461785	      0.33185893	     -0.33912694	      0.71938056	     -0.97656778	     30.12284578	     -7.44484276	      8.37484807	     93.03123250	      1.62370131	    -19.18667621	      0.00000000	      0.00000000	     82.43619054	     -2.69380253	     -3.32065967	     88.66787455	      1.54754635	     22.58632756	      0.00000000	      0.00000000	    -15.66699744	    -11.06371302	      8.11813699	     76.15602576	     -6.12840930	     23.87866666	     76.40718064	     77.88519695	      0.00000000	      0.00000000	     80.06380404	    -12.69550553	     31.96945569	     73.19404122	     70.46328998	      0.00000000	      0.00000000
